<?xml version="1.0"?><svg width="640" height="480" xmlns="http://www.w3.org/2000/svg">
 <g>
  <title>Layer 1</title>
  <g id="layer1">
   <path fill="#000000" fill-rule="nonzero" stroke="#000000" stroke-width="7.45019" stroke-linecap="round" stroke-linejoin="round" stroke-miterlimit="4" id="path2383" d="m135.379532,42.540585c-16.409439,-28.488498 -56.004471,-40.361849 -85.380302,-25.604271c-20.630924,10.1738 -33.316351,30.925648 -41.200629,51.686535c-5.659272,14.980316 -9.150901,31.728127 -4.934259,47.561966c5.18239,12.308853 18.38793,18.159424 30.321659,22.016098c23.813866,7.552994 50.842487,8.571899 74.204723,-1.53746c28.551247,-13.723984 43.889488,-49.445038 33.649391,-79.491241c-1.613007,-5.103867 -3.901947,-10.017059 -6.660583,-14.631626z"/>
   <path fill="#000000" fill-opacity="0.313725" fill-rule="nonzero" stroke-width="4" stroke-linecap="round" stroke-linejoin="round" stroke-miterlimit="4" id="path3250" d="m89.461441,11.615676c4.467941,2.417323 8.622963,5.422568 12.298347,9.026614c3.592461,3.410229 6.832634,7.196638 9.529953,11.325212c16.539551,24.120033 11.795181,59.630459 -10.133965,78.890591c-18.221603,14.765572 -42.46434,20.55896 -65.468121,19.764587c-9.317732,-0.372589 -19.686077,-1.687698 -27.365069,-7.248131c6.443542,7.575768 16.531812,11.818825 25.855041,14.831841c23.813866,7.552994 50.847275,8.565765 74.209503,-1.543594c28.551254,-13.723984 43.896942,-49.44841 33.65686,-79.494598c-1.613007,-5.103867 -3.902267,-10.01593 -6.660904,-14.630497c-9.600609,-16.66766 -27.138031,-27.635026 -45.921646,-30.922025z"/>
   <path fill="#000000" fill-rule="evenodd" stroke="#000000" stroke-width="7.450191" stroke-miterlimit="4" id="path3239" d="m137.488174,37.051544c8.090561,-12.561861 33.795074,-19.292416 39.121918,-12.723579c5.326828,6.568819 2.788315,18.117096 1.169846,19.489902c-1.618484,1.372803 -12.156799,-7.009327 -21.34407,-2.800991c-9.187302,4.208351 -14.37149,8.516586 -14.37149,8.516586l-4.576202,-12.481918z"/>
   <path fill="#000000" fill-opacity="0.313725" fill-rule="evenodd" stroke-width="4" stroke-miterlimit="4" id="path3263" d="m179.559799,31.514494c-0.258331,1.543222 -0.801544,2.733912 -1.32547,3.103949c-1.51593,1.070683 -12.575363,-3.349886 -21.425613,0.369118c-8.85025,3.719002 -13.707703,7.080353 -13.707703,7.080353l-4.53009,-6.493122c-0.380447,0.48645 -0.764786,0.970623 -1.090576,1.476475l4.580414,12.482899c0,0 5.191544,-4.314919 14.37883,-8.52327c9.187286,-4.208336 19.723251,4.174728 21.341736,2.801941c1.11055,-0.941982 2.639862,-6.67062 1.778473,-12.298342z"/>
   <path fill="#000000" fill-rule="nonzero" stroke="#000000" stroke-width="7.450191" stroke-linecap="round" stroke-linejoin="round" stroke-miterlimit="4" id="path3201" d="m142.601669,38.5065c-16.173256,-27.744623 -51.153938,-43.19705 -81.199097,-33.701993c-6.662819,1.638354 -7.045338,10.156611 -6.958645,10.037101c11.751789,-5.072965 19.540165,6.081337 30.215916,19.12665c13.056915,15.954948 26.06002,38.539211 34.473137,59.367344c5.887321,14.575119 9.243835,28.237007 1.788696,35.15329c0.246841,0.156113 7.273804,4.344513 12.634674,-1.812958c26.329315,-28.35199 24.919144,-62.751492 9.045319,-88.169434z"/>
   <path fill="#000000" fill-opacity="0.313725" fill-rule="nonzero" stroke-width="4" stroke-linecap="round" stroke-linejoin="round" stroke-miterlimit="4" id="path3269" d="m141.526505,35.613625c2.12207,20.015804 -3.377243,36.934975 -16.660316,51.118881c-3.01313,3.217461 -5.774109,1.173416 -8.358459,0.418144c0.910995,2.072517 1.790718,4.144547 2.617386,6.191116c5.887321,14.575119 9.250389,28.233826 1.79525,35.150101c0.246841,0.156113 7.27301,4.345428 12.633911,-1.812035c24.116165,-25.968811 25.893341,-60.804413 7.972229,-91.066208z"/>
  </g>
 </g>
</svg>